<svg width="25" height="25" viewBox="0 0 25 25" fill="none" xmlns="http://www.w3.org/2000/svg">
<path d="M12.505 9.41014V13.4101M12.505 17.4101H12.515M11.1203 4.30187L2.89544 18.5085C2.43923 19.2965 2.21113 19.6905 2.24484 20.0138C2.27425 20.2959 2.42202 20.5522 2.65138 20.7189C2.91433 20.9101 3.3696 20.9101 4.28012 20.9101H20.7299C21.6404 20.9101 22.0957 20.9101 22.3586 20.7189C22.588 20.5522 22.7358 20.2959 22.7652 20.0138C22.7989 19.6905 22.5708 19.2965 22.1146 18.5085L13.8897 4.30186C13.4351 3.5167 13.2078 3.12412 12.9113 2.99227C12.6526 2.87725 12.3574 2.87725 12.0987 2.99227C11.8022 3.12412 11.5749 3.5167 11.1203 4.30187Z" stroke="#667085" stroke-width="2" stroke-linecap="round" stroke-linejoin="round"/>
</svg>
