<svg width="25" height="25" viewBox="0 0 25 25" fill="none" xmlns="http://www.w3.org/2000/svg">
<path d="M15.5052 21.4102V16.0102C15.5052 15.4501 15.5052 15.1701 15.3963 14.9562C15.3004 14.768 15.1474 14.615 14.9592 14.5191C14.7453 14.4102 14.4653 14.4102 13.9052 14.4102H11.1052C10.5452 14.4102 10.2652 14.4102 10.0513 14.5191C9.8631 14.615 9.71012 14.768 9.61424 14.9562C9.50525 15.1701 9.50525 15.4501 9.50525 16.0102V21.4102M3.50525 7.41016C3.50525 9.06701 4.84839 10.4102 6.50525 10.4102C8.1621 10.4102 9.50525 9.06701 9.50525 7.41016C9.50525 9.06701 10.8484 10.4102 12.5052 10.4102C14.1621 10.4102 15.5052 9.06701 15.5052 7.41016C15.5052 9.06701 16.8484 10.4102 18.5052 10.4102C20.1621 10.4102 21.5052 9.06701 21.5052 7.41016M6.70525 21.4102H18.3052C19.4254 21.4102 19.9854 21.4102 20.4132 21.1922C20.7896 21.0004 21.0955 20.6945 21.2873 20.3181C21.5052 19.8903 21.5052 19.3303 21.5052 18.2102V6.61016C21.5052 5.49005 21.5052 4.93 21.2873 4.50218C21.0955 4.12585 20.7896 3.81989 20.4132 3.62814C19.9854 3.41016 19.4254 3.41016 18.3052 3.41016H6.70525C5.58514 3.41016 5.02509 3.41016 4.59727 3.62814C4.22094 3.81989 3.91498 4.12585 3.72324 4.50218C3.50525 4.93 3.50525 5.49005 3.50525 6.61016V18.2102C3.50525 19.3303 3.50525 19.8903 3.72324 20.3181C3.91498 20.6945 4.22094 21.0004 4.59727 21.1922C5.02509 21.4102 5.58514 21.4102 6.70525 21.4102Z" stroke="#667085" stroke-width="2" stroke-linecap="round" stroke-linejoin="round"/>
</svg>
