<svg width="24" height="25" viewBox="0 0 24 25" fill="none" xmlns="http://www.w3.org/2000/svg">
<g clip-path="url(#clip0_5_5727)">
<path d="M12 24.8134C18.6274 24.8134 24 19.4408 24 12.8134C24 6.18594 18.6274 0.813354 12 0.813354C5.37258 0.813354 0 6.18594 0 12.8134C0 19.4408 5.37258 24.8134 12 24.8134Z" fill="#F0F0F0"/>
<path d="M24.0008 12.8144C24.0008 8.05688 21.2322 3.94613 17.2182 2.00513V23.6236C21.2322 21.6827 24.0008 17.5719 24.0008 12.8144Z" fill="#D80027"/>
<path d="M0.000457764 12.8137C0.000457764 17.5713 2.76913 21.682 6.78308 23.623V2.00446C2.76913 3.94546 0.000457764 8.0562 0.000457764 12.8137Z" fill="#D80027"/>
<path d="M14.0876 14.3795L16.1745 13.3361L15.131 12.8143V11.7709L13.0441 12.8143L14.0876 10.7274H13.0441L12.0006 9.16217L10.9571 10.7274H9.91361L10.9571 12.8143L8.87013 11.7709V12.8143L7.82669 13.3361L9.91361 14.3795L9.39189 15.423H11.4789V16.9882H12.5223V15.423H14.6093L14.0876 14.3795Z" fill="#D80027"/>
</g>
<defs>
<clipPath id="clip0_5_5727">
<rect width="24" height="24" fill="white" transform="translate(0 0.813354)"/>
</clipPath>
</defs>
</svg>
