<svg width="20" height="20" viewBox="0 0 20 20" fill="none" xmlns="http://www.w3.org/2000/svg">
<path d="M10.0001 10.8333C10.4603 10.8333 10.8334 10.4602 10.8334 9.99998C10.8334 9.53974 10.4603 9.16665 10.0001 9.16665C9.53984 9.16665 9.16675 9.53974 9.16675 9.99998C9.16675 10.4602 9.53984 10.8333 10.0001 10.8333Z" stroke="#98A2B3" stroke-width="1.66667" stroke-linecap="round" stroke-linejoin="round"/>
<path d="M10.0001 4.99998C10.4603 4.99998 10.8334 4.62688 10.8334 4.16665C10.8334 3.70641 10.4603 3.33331 10.0001 3.33331C9.53984 3.33331 9.16675 3.70641 9.16675 4.16665C9.16675 4.62688 9.53984 4.99998 10.0001 4.99998Z" stroke="#98A2B3" stroke-width="1.66667" stroke-linecap="round" stroke-linejoin="round"/>
<path d="M10.0001 16.6666C10.4603 16.6666 10.8334 16.2935 10.8334 15.8333C10.8334 15.3731 10.4603 15 10.0001 15C9.53984 15 9.16675 15.3731 9.16675 15.8333C9.16675 16.2935 9.53984 16.6666 10.0001 16.6666Z" stroke="#98A2B3" stroke-width="1.66667" stroke-linecap="round" stroke-linejoin="round"/>
</svg>
