<svg width="38" height="38" viewBox="0 0 38 38" fill="none" xmlns="http://www.w3.org/2000/svg">
<path d="M31.9443 18.601C30.9373 13.7441 26.6356 10.0938 21.4807 10.0938C17.9954 10.0938 14.9091 11.7699 12.958 14.3515C12.6366 14.2842 12.3091 14.2501 11.9807 14.25C9.96668 14.25 8.24896 15.5058 7.55843 17.2758C4.02978 17.7009 1.29318 20.7005 1.29318 24.3438C1.29318 28.2785 4.4834 31.4688 8.41818 31.4688H30.3869C33.994 31.4688 36.9182 28.5445 36.9182 24.9375C36.9182 21.8684 34.7979 19.3004 31.9443 18.601Z" fill="#6E83B7"/>
<path d="M25.7551 22.1493C20.0159 22.1493 15.3627 17.4966 15.3627 11.7568C15.3627 10.5474 15.58 9.39194 15.9594 8.3125C11.916 9.73512 9.01193 13.5779 9.01193 18.1076C9.01193 23.8474 13.6646 28.5 19.4043 28.5C23.9347 28.5 27.7774 25.596 29.1994 21.5525C28.0934 21.9451 26.9287 22.1469 25.7551 22.1493Z" fill="#FFE352"/>
<path d="M20.0497 11.3982L17.9182 10.6875L20.0497 9.97678C20.3559 9.87477 20.6341 9.70287 20.8622 9.4747C21.0904 9.24652 21.2623 8.96835 21.3643 8.66222L22.0744 6.53125L22.7852 8.66281C22.8872 8.96895 23.0591 9.24712 23.2872 9.47529C23.5154 9.70346 23.7936 9.87536 24.0997 9.97738L26.2307 10.6875L24.0991 11.3982C23.793 11.5002 23.5148 11.6721 23.2866 11.9003C23.0585 12.1285 22.8866 12.4066 22.7846 12.7128L22.0744 14.8438L21.3637 12.7122C21.2618 12.4062 21.09 12.1281 20.8619 11.9C20.6338 11.6719 20.3558 11.5001 20.0497 11.3982ZM26.8547 18.2186L25.6369 17.8125L26.8547 17.4064C27.0296 17.3481 27.1886 17.2499 27.3189 17.1195C27.4493 16.9891 27.5475 16.8302 27.6058 16.6553L28.0119 15.4375L28.4181 16.6553C28.4764 16.8302 28.5746 16.9891 28.7049 17.1195C28.8353 17.2499 28.9942 17.3481 29.1692 17.4064L30.3869 17.8125L29.1692 18.2186C28.9942 18.2769 28.8353 18.3751 28.7049 18.5055C28.5746 18.6359 28.4764 18.7948 28.4181 18.9697L28.0119 20.1875L27.6058 18.9697C27.5477 18.7947 27.4495 18.6357 27.3191 18.5053C27.1887 18.3749 27.0297 18.2768 26.8547 18.2186ZM6.36262 24.6483L5.44943 24.3438L6.36262 24.0392C6.62862 23.9507 6.83703 23.7417 6.92609 23.4757L7.23068 22.5625L7.53528 23.4757C7.62374 23.7417 7.83274 23.9501 8.09874 24.0392L9.01193 24.3438L8.09874 24.6483C7.96754 24.6921 7.84832 24.7658 7.75053 24.8636C7.65273 24.9614 7.57903 25.0806 7.53528 25.2118L7.23068 26.125L6.92609 25.2118C6.88237 25.0806 6.80869 24.9613 6.71089 24.8635C6.61308 24.7657 6.49384 24.6921 6.36262 24.6483ZM23.5814 31.7733L22.6682 31.4688L23.5814 31.1642C23.8474 31.0757 24.0558 30.8667 24.1448 30.6007L24.4494 29.6875L24.754 30.6007C24.8425 30.8667 25.0515 31.0751 25.3175 31.1642L26.2307 31.4688L25.3175 31.7733C25.1863 31.8171 25.0671 31.8908 24.9693 31.9886C24.8715 32.0864 24.7978 32.2056 24.754 32.3368L24.4494 33.25L24.1448 32.3368C24.1011 32.2056 24.0274 32.0863 23.9296 31.9885C23.8318 31.8907 23.7126 31.8171 23.5814 31.7733ZM8.73762 8.61709L7.82443 8.3125L8.73762 8.00791C9.00362 7.91944 9.21203 7.71044 9.30109 7.44444L9.60568 6.53125L9.91028 7.44444C9.99874 7.71044 10.2077 7.91884 10.4737 8.00791L11.3869 8.3125L10.4737 8.61709C10.3425 8.66085 10.2233 8.73455 10.1255 8.83234C10.0277 8.93014 9.95403 9.04936 9.91028 9.18056L9.60568 10.0938L9.30109 9.18056C9.25737 9.04934 9.18369 8.9301 9.08589 8.83229C8.98808 8.73449 8.86884 8.66081 8.73762 8.61709ZM29.5189 6.83584L28.6057 6.53125L29.5189 6.22666C29.7849 6.13819 29.9933 5.92919 30.0823 5.66319L30.3869 4.75L30.6915 5.66319C30.78 5.92919 30.989 6.13759 31.255 6.22666L32.1682 6.53125L31.255 6.83584C31.1238 6.8796 31.0046 6.9533 30.9068 7.05109C30.809 7.14889 30.7353 7.26811 30.6915 7.39931L30.3869 8.3125L30.0823 7.39931C30.0386 7.26809 29.9649 7.14885 29.8671 7.05104C29.7693 6.95324 29.6501 6.87956 29.5189 6.83584Z" fill="#FFE352"/>
</svg>
