<svg width="24" height="25" viewBox="0 0 24 25" fill="none" xmlns="http://www.w3.org/2000/svg">
<g clip-path="url(#clip0_5_5754)">
<path d="M12 24.8134C18.6274 24.8134 24 19.4408 24 12.8134C24 6.18594 18.6274 0.813354 12 0.813354C5.37258 0.813354 0 6.18594 0 12.8134C0 19.4408 5.37258 24.8134 12 24.8134Z" fill="#F0F0F0"/>
<path d="M2.48069 5.50635C1.53808 6.73274 0.827311 8.14625 0.413452 9.68183H6.65617L2.48069 5.50635Z" fill="#0052B4"/>
<path d="M23.587 9.68197C23.1732 8.14644 22.4624 6.73292 21.5198 5.50653L17.3444 9.68197H23.587Z" fill="#0052B4"/>
<path d="M0.413452 15.9435C0.827359 17.4791 1.53812 18.8926 2.48069 20.1189L6.65603 15.9435H0.413452Z" fill="#0052B4"/>
<path d="M19.3055 3.29311C18.0791 2.3505 16.6657 1.63974 15.1301 1.22583V7.46851L19.3055 3.29311Z" fill="#0052B4"/>
<path d="M4.69394 22.331C5.92033 23.2737 7.33385 23.9844 8.86938 24.3983V18.1557L4.69394 22.331Z" fill="#0052B4"/>
<path d="M8.86933 1.22583C7.3338 1.63974 5.92028 2.3505 4.69394 3.29306L8.86933 7.46845V1.22583Z" fill="#0052B4"/>
<path d="M15.1301 24.3983C16.6656 23.9844 18.0791 23.2737 19.3055 22.3311L15.1301 18.1557V24.3983Z" fill="#0052B4"/>
<path d="M17.3444 15.9435L21.5198 20.119C22.4624 18.8926 23.1732 17.4791 23.587 15.9435H17.3444Z" fill="#0052B4"/>
<path d="M23.8984 11.2482H13.5653H13.5653V0.914933C13.0529 0.848229 12.5305 0.813354 12 0.813354C11.4694 0.813354 10.9471 0.848229 10.4348 0.914933V11.2481V11.2481H0.101578C0.034875 11.7605 0 12.2829 0 12.8134C0 13.3439 0.034875 13.8662 0.101578 14.3786H10.4347H10.4347V24.7118C10.9471 24.7785 11.4694 24.8134 12 24.8134C12.5305 24.8134 13.0529 24.7785 13.5652 24.7118V14.3787V14.3786H23.8984C23.9651 13.8662 24 13.3439 24 12.8134C24 12.2829 23.9651 11.7605 23.8984 11.2482Z" fill="#D80027"/>
<path d="M15.1304 15.9446L20.4852 21.2994C20.7315 21.0533 20.9665 20.7959 21.1906 20.5291L16.6062 15.9446H15.1304V15.9446Z" fill="#D80027"/>
<path d="M8.86954 15.9446H8.86944L3.51468 21.2993C3.76087 21.5456 4.01826 21.7806 4.28507 22.0047L8.86954 17.4202V15.9446Z" fill="#D80027"/>
<path d="M8.86936 9.68247V9.68237L3.51455 4.32751C3.26827 4.5737 3.03333 4.83109 2.80917 5.09791L7.39369 9.68242H8.86936V9.68247Z" fill="#D80027"/>
<path d="M15.1304 9.68353L20.4853 4.32862C20.2391 4.08234 19.9817 3.8474 19.7149 3.62329L15.1304 8.20781V9.68353Z" fill="#D80027"/>
</g>
<defs>
<clipPath id="clip0_5_5754">
<rect width="24" height="24" fill="white" transform="translate(0 0.813354)"/>
</clipPath>
</defs>
</svg>
