<svg width="141" height="24" viewBox="0 0 141 24" fill="none" xmlns="http://www.w3.org/2000/svg">
<path d="M12.8527 13.5377C13.014 13.5377 13.0831 13.607 13.0831 13.7689C13.0831 14.7625 12.0684 18.8984 6.92494 18.8984C3.14248 18.8984 0.489807 16.3109 0.489807 12.1051C0.489807 8.01524 3.21164 5.35764 6.94818 5.35764C12.0684 5.35764 13.0831 9.49412 13.0831 10.4877C13.0831 10.6726 13.014 10.7186 12.8527 10.7186H9.64649C9.48521 10.7186 9.4393 10.6726 9.39281 10.4877C9.16238 9.37826 8.33191 8.52353 6.92494 8.52353C5.24133 8.52353 4.15719 9.86355 4.15719 12.1282C4.15719 14.4158 5.21808 15.7098 6.90169 15.7098C8.33191 15.7098 9.16238 14.878 9.39281 13.7689C9.4393 13.607 9.48521 13.5377 9.64649 13.5377H12.8527Z" fill="#101828"/>
<path d="M24.4996 12.1292C24.4996 9.8879 23.2545 8.50131 21.3861 8.50131C19.633 8.50131 18.3417 9.86462 18.3417 12.1292C18.3417 14.4631 19.5871 15.7338 21.3861 15.7338C23.2083 15.7338 24.4996 14.4631 24.4996 12.1292ZM28.1902 12.1062C28.1902 16.335 25.3071 18.9227 21.3861 18.9227C17.5112 18.9227 14.6973 16.2887 14.6973 12.1062C14.6973 8.0163 17.5574 5.3357 21.3861 5.3357C25.3301 5.3357 28.1902 7.94702 28.1902 12.1062Z" fill="#101828"/>
<path d="M30.149 7.32176C30.149 6.16631 30.8409 5.51945 32.0175 5.51945H42.3504C45.8792 5.51945 48.232 7.64519 48.232 11.2501V18.5059C48.232 18.6905 48.1858 18.7368 48.0242 18.7368H44.7721C44.6105 18.7368 44.5643 18.6905 44.5643 18.5059V11.1578C44.5643 9.54007 43.7112 8.77763 42.3274 8.77763H41.0588V18.5059C41.0588 18.6905 41.0126 18.7368 40.8281 18.7368H37.553C37.3914 18.7368 37.3455 18.6905 37.3455 18.5059V8.77763H33.8394V18.5059C33.8394 18.6905 33.7932 18.7368 33.6319 18.7368H30.3565C30.1952 18.7368 30.149 18.6905 30.149 18.5059V7.32176Z" fill="#101828"/>
<path d="M54.1353 12.3827C54.1353 14.601 55.1729 15.7099 56.8801 15.7099C58.6096 15.7099 59.5554 14.3466 59.5554 12.2208C59.5554 10.0485 58.4483 8.7315 56.534 8.7315H54.1353V12.3827ZM50.537 7.32191C50.537 6.18976 51.2521 5.51961 52.4052 5.51961H56.6723C60.5239 5.51961 63.1995 8.03835 63.1995 12.1283C63.1995 16.1259 60.8241 18.8985 57.5487 18.8985C55.1038 18.8985 54.2044 17.5355 54.2044 17.5355V23.1273C54.2044 23.3121 54.1353 23.3584 53.9737 23.3584H50.7445C50.5832 23.3584 50.537 23.3121 50.537 23.1273V7.32191Z" fill="#101828"/>
<path d="M73.4041 16.215V15.0828C73.4041 13.9506 72.297 13.0493 70.5442 13.0493C69.0913 13.0493 68.3992 13.7425 68.3992 14.7594C68.3992 15.6144 68.9295 16.215 70.1752 16.215H73.4041ZM69.6446 18.7337C66.8307 18.7337 64.8472 17.5553 64.8472 14.8287C64.8472 12.3099 66.7385 10.6925 69.8062 10.6925C72.6201 10.6925 73.3811 11.7783 73.3811 11.7783V10.0686C73.3811 8.77458 72.6893 7.94285 70.9592 7.94285C69.5292 7.94285 68.8374 8.58972 68.6299 9.62931C68.6069 9.79117 68.5143 9.86045 68.353 9.86045H65.3086C65.147 9.86045 65.1008 9.79117 65.1008 9.62931C65.1008 8.79758 65.9313 5.28525 71.1669 5.28525C74.8111 5.28525 76.9332 6.92599 76.9332 9.88374V16.9314C76.9332 18.0636 76.218 18.7337 75.065 18.7337H69.6446Z" fill="#101828"/>
<path d="M79.235 11.224C79.235 7.61914 81.68 5.5164 85.0704 5.5164H86.5466C86.7084 5.5164 86.7543 5.56268 86.7543 5.74754V8.58972C86.7543 8.77458 86.7084 8.82058 86.5466 8.82058H85.3244C83.8712 8.82058 82.9257 9.69888 82.9257 11.2933V18.5028C82.9257 18.6874 82.8795 18.7337 82.7179 18.7337H79.4428C79.2812 18.7337 79.235 18.6874 79.235 18.5028V11.224Z" fill="#101828"/>
<path d="M96.8016 10.7889C96.7325 9.35632 95.8099 8.13159 94.0801 8.13159C92.581 8.13159 91.5198 9.19475 91.2891 10.7889H96.8016ZM99.9384 14.209C100.123 14.209 100.169 14.2552 100.169 14.4401C100.169 15.2025 98.8543 18.9227 94.1263 18.9227C90.2514 18.9227 87.5755 16.2887 87.5755 12.1062C87.5755 8.0163 90.2973 5.3357 94.0801 5.3357C98.3237 5.3357 100.4 8.22416 100.4 11.6442C100.4 12.7764 99.7768 13.2384 98.7389 13.2384H91.2891C91.5198 14.7172 92.5577 15.8497 94.1722 15.8497C95.3484 15.8497 96.2251 15.3414 96.525 14.4401C96.5941 14.2552 96.6401 14.209 96.8016 14.209H99.9384Z" fill="#101828"/>
<path d="M102.348 0.525188C102.348 0.340328 102.395 0.294046 102.556 0.294046H105.854C106.016 0.294046 106.085 0.340328 106.085 0.525188V18.5028C106.085 18.6874 106.016 18.7337 105.854 18.7337H102.556C102.395 18.7337 102.348 18.6874 102.348 18.5028V0.525188Z" fill="#101828"/>
<path d="M108.402 5.75059C108.402 5.58873 108.448 5.51945 108.61 5.51945H111.931C112.093 5.51945 112.162 5.58873 112.162 5.75059V18.5059C112.162 18.6905 112.093 18.7368 111.931 18.7368H108.61C108.448 18.7368 108.402 18.6905 108.402 18.5059V5.75059ZM112.392 2.35384C112.392 3.55528 111.47 4.24872 110.271 4.24872C109.117 4.24872 108.172 3.55528 108.172 2.35384C108.172 1.17511 109.117 0.435671 110.271 0.435671C111.47 0.435671 112.392 1.17511 112.392 2.35384Z" fill="#101828"/>
<path d="M114.467 7.32176C114.467 6.16631 115.159 5.51945 116.336 5.51945H120.418C123.808 5.51945 126.323 7.64519 126.323 11.2501V18.5059C126.323 18.6905 126.276 18.7368 126.092 18.7368H122.863C122.702 18.7368 122.655 18.6905 122.655 18.5059V11.1578C122.655 9.54007 121.756 8.77763 120.418 8.77763H118.158V18.5059C118.158 18.6905 118.112 18.7368 117.95 18.7368H114.675C114.513 18.7368 114.467 18.6905 114.467 18.5059V7.32176Z" fill="#101828"/>
<path d="M137.346 8.75532H134.948C133.125 8.75532 131.926 9.88776 131.926 11.9675C131.926 14.0007 132.918 15.1561 134.648 15.1561C136.378 15.1561 137.346 14.1625 137.346 11.9675V8.75532ZM131.972 18.7377C132.157 18.7377 132.203 18.784 132.249 18.9686C132.48 20.0087 133.264 20.7249 134.671 20.7249C136.309 20.7249 137.323 19.8469 137.323 17.7674V16.7968C137.323 16.7968 136.585 18.1832 133.887 18.1832C130.657 18.1832 128.282 15.757 128.282 11.9905C128.282 8.06216 130.958 5.52042 134.855 5.52042H138.869C140.183 5.52042 140.967 6.28286 140.967 7.57688V17.3514C140.967 21.5799 138.292 23.7059 134.648 23.7059C129.804 23.7059 128.628 19.9857 128.628 18.9686C128.628 18.784 128.697 18.7377 128.859 18.7377H131.972Z" fill="#101828"/>
</svg>
