<svg width="25" height="25" viewBox="0 0 25 25" fill="none" xmlns="http://www.w3.org/2000/svg">
<path d="M13.5053 14.4102L10.5053 11.4102M15.5156 3.91016V2.41016M19.4549 5.47082L20.5156 4.41016M19.4549 13.4102L20.5156 14.4708M11.5156 5.47082L10.4549 4.41016M21.0156 9.41016H22.5156M6.63662 21.2788L15.8739 12.0415C16.2699 11.6455 16.4679 11.4475 16.5421 11.2192C16.6074 11.0183 16.6074 10.802 16.5421 10.6011C16.4679 10.3728 16.2699 10.1748 15.8739 9.77878L15.1366 9.04153C14.7406 8.64551 14.5426 8.4475 14.3143 8.37331C14.1134 8.30806 13.8971 8.30806 13.6962 8.37331C13.4679 8.4475 13.2699 8.64551 12.8739 9.04153L3.63662 18.2788C3.2406 18.6748 3.0426 18.8728 2.96841 19.1011C2.90315 19.302 2.90315 19.5183 2.96841 19.7192C3.0426 19.9475 3.2406 20.1455 3.63662 20.5415L4.37388 21.2788C4.7699 21.6748 4.96791 21.8728 5.19623 21.947C5.39708 22.0123 5.61342 22.0123 5.81427 21.947C6.0426 21.8728 6.2406 21.6748 6.63662 21.2788Z" stroke="#667085" stroke-width="2" stroke-linecap="round" stroke-linejoin="round"/>
</svg>
