<svg width="25" height="25" viewBox="0 0 25 25" fill="none" xmlns="http://www.w3.org/2000/svg">
<path d="M11.5052 4.41016H8.30525C6.62509 4.41016 5.78501 4.41016 5.14328 4.73714C4.57879 5.02476 4.11985 5.4837 3.83223 6.04818C3.50525 6.68992 3.50525 7.53 3.50525 9.21016V16.6102C3.50525 18.2903 3.50525 19.1304 3.83223 19.7721C4.11985 20.3366 4.57879 20.7956 5.14328 21.0832C5.78501 21.4102 6.62509 21.4102 8.30525 21.4102H15.7052C17.3854 21.4102 18.2255 21.4102 18.8672 21.0832C19.4317 20.7956 19.8906 20.3366 20.1783 19.7721C20.5052 19.1304 20.5052 18.2903 20.5052 16.6102V13.4102M13.5052 17.4102H7.50525M15.5052 13.4102H7.50525M20.6266 4.28884C21.7981 5.46041 21.7981 7.3599 20.6266 8.53148C19.455 9.70305 17.5555 9.70305 16.3839 8.53148C15.2124 7.3599 15.2124 5.46041 16.3839 4.28884C17.5555 3.11726 19.455 3.11726 20.6266 4.28884Z" stroke="#667085" stroke-width="2" stroke-linecap="round" stroke-linejoin="round"/>
</svg>
