<svg width="33" height="34" viewBox="0 0 33 34" fill="none" xmlns="http://www.w3.org/2000/svg">
<path d="M15.2036 6.07738V0.610931H20.6175C26.43 0.610931 30.2024 4.3589 31.8437 9.14492C32.4593 10.944 32.7781 12.8816 32.7781 14.8187C32.7781 16.7678 32.4705 18.7049 31.8437 20.4925C30.191 25.2552 26.3734 28.9572 20.2983 28.9572H16.5599L11.1008 33.0741C10.6335 33.4315 10.0295 33.4892 9.50538 33.2242C8.9696 32.9471 8.66178 32.4398 8.66178 31.8398V28.9572C4.61608 28.4148 1.98282 25.6241 0.763293 22.1417C0.250589 20.6885 0 19.1201 0 17.5632C0 16.0066 0.250589 14.438 0.763293 12.9848C2.11946 9.11028 5.24267 6.07738 10.1203 6.07738H11.5109H15.2036ZM18.2692 9.17955V14.6342H11.1348C10.0863 14.6342 9.41411 15.3259 9.11769 16.2142C8.98078 16.6062 8.91232 17.0557 8.91232 17.517C8.91232 17.9783 8.98078 18.4281 9.11769 18.8204C9.41411 19.7084 10.0863 20.4003 11.1348 20.4003H17.9391C20.5833 20.4003 22.2702 18.9705 22.9879 17.1365C23.2843 16.4104 23.4324 15.603 23.4324 14.7843C23.4324 13.9653 23.2843 13.1695 22.9879 12.4318C22.2931 10.6785 20.7202 9.29476 18.2692 9.17955ZM18.2692 3.71311V6.07738C22.179 6.20413 24.6974 8.44141 25.8258 11.2781C26.2705 12.3967 26.4871 13.5961 26.4871 14.7843C26.4871 15.9717 26.2705 17.1712 25.8258 18.2898C24.6637 21.2075 22.0306 23.491 17.9391 23.491H11.1348C8.57074 23.491 6.94082 21.8877 6.23413 19.8351C5.97218 19.0857 5.84667 18.2898 5.84667 17.517C5.84667 16.7447 5.97218 15.9486 6.23413 15.1994C6.94082 13.1466 8.57074 11.5433 11.1348 11.5433H15.2036V9.17955H11.5109H10.1203C6.75826 9.17955 4.5928 11.3014 3.64674 14.0113C3.2594 15.1302 3.06584 16.3411 3.06584 17.5632C3.06584 18.7858 3.2594 20.0081 3.64674 21.1149C4.5928 23.8368 6.75826 25.9587 10.1203 25.9587H10.1892H11.7163V27.504V28.7494L15.1354 26.1662L15.5456 25.8548H16.047H20.2983C24.846 25.8548 27.7179 23.0641 28.9599 19.4662C29.4731 18.0014 29.7239 16.4104 29.7239 14.8187C29.7239 13.2272 29.4731 11.6357 28.9599 10.1597C27.7179 6.53845 24.9142 3.71311 20.6175 3.71311H18.2692Z" fill="#5D58B1"/>
</svg>
