<svg width="34" height="33" viewBox="0 0 34 33" fill="none" xmlns="http://www.w3.org/2000/svg">
<path d="M15.7088 5.48753V0.0210876H21.1227C26.9353 0.0210876 30.7076 3.76905 32.3489 8.55508C32.9646 10.3541 33.2834 12.2917 33.2834 14.2288C33.2834 16.178 32.9758 18.1151 32.3489 19.9026C30.6962 24.6653 26.8787 28.3673 20.8035 28.3673H17.0652L11.6061 32.4842C11.1388 32.8417 10.5348 32.8994 10.0106 32.6343C9.47485 32.3573 9.16703 31.85 9.16703 31.2499V28.3673C5.12133 27.825 2.48807 25.0343 1.26854 21.5518C0.755838 20.0986 0.505249 18.5302 0.505249 16.9734C0.505249 15.4167 0.755838 13.8481 1.26854 12.3949C2.62471 8.52044 5.74792 5.48753 10.6256 5.48753H12.0161H15.7088ZM18.7745 8.58971V14.0444H11.6401C10.5916 14.0444 9.91935 14.7361 9.62294 15.6243C9.48603 16.0164 9.41757 16.4659 9.41757 16.9272C9.41757 17.3885 9.48603 17.8383 9.62294 18.2305C9.91935 19.1185 10.5916 19.8105 11.6401 19.8105H18.4443C21.0885 19.8105 22.7755 18.3806 23.4931 16.5467C23.7895 15.8206 23.9376 15.0132 23.9376 14.1944C23.9376 13.3755 23.7895 12.5796 23.4931 11.842C22.7983 10.0886 21.2254 8.70492 18.7745 8.58971ZM18.7745 3.12327V5.48753C22.6842 5.61428 25.2027 7.85156 26.331 10.6882C26.7758 11.8069 26.9923 13.0063 26.9923 14.1944C26.9923 15.3819 26.7758 16.5813 26.331 17.7C25.1689 20.6177 22.5359 22.9011 18.4443 22.9011H11.6401C9.07599 22.9011 7.44606 21.2979 6.73938 19.2453C6.47742 18.4958 6.35192 17.7 6.35192 16.9272C6.35192 16.1549 6.47742 15.3588 6.73938 14.6096C7.44606 12.5568 9.07599 10.9535 11.6401 10.9535H15.7088V8.58971H12.0161H10.6256C7.26351 8.58971 5.09804 10.7115 4.15199 13.4214C3.76465 14.5403 3.57109 15.7513 3.57109 16.9734C3.57109 18.1959 3.76465 19.4182 4.15199 20.5251C5.09804 23.247 7.26351 25.3688 10.6256 25.3688H10.6945H12.2215V26.9141V28.1595L15.6406 25.5764L16.0509 25.2649H16.5522H20.8035C25.3512 25.2649 28.2231 22.4742 29.4651 18.8763C29.9783 17.4116 30.2291 15.8206 30.2291 14.2288C30.2291 12.6374 29.9783 11.0459 29.4651 9.56981C28.2231 5.9486 25.4195 3.12327 21.1227 3.12327H18.7745Z" fill="#5D58B1"/>
</svg>
