<svg width="25" height="25" viewBox="0 0 25 25" fill="none" xmlns="http://www.w3.org/2000/svg">
<path d="M12.5053 15.4102C9.33518 15.4102 6.51605 16.9408 4.72125 19.3161C4.33496 19.8274 4.14181 20.083 4.14813 20.4284C4.15301 20.6953 4.32061 21.0321 4.53062 21.1968C4.80244 21.4102 5.17912 21.4102 5.93248 21.4102H19.078C19.8314 21.4102 20.2081 21.4102 20.4799 21.1968C20.6899 21.0321 20.8575 20.6953 20.8624 20.4284C20.8687 20.083 20.6755 19.8274 20.2893 19.3161C18.4945 16.9408 15.6753 15.4102 12.5053 15.4102Z" stroke="#667085" stroke-width="2" stroke-linecap="round" stroke-linejoin="round"/>
<path d="M12.5053 12.4102C14.9905 12.4102 17.0053 10.3954 17.0053 7.91016C17.0053 5.42487 14.9905 3.41016 12.5053 3.41016C10.02 3.41016 8.00525 5.42487 8.00525 7.91016C8.00525 10.3954 10.02 12.4102 12.5053 12.4102Z" stroke="#667085" stroke-width="2" stroke-linecap="round" stroke-linejoin="round"/>
</svg>
