<svg width="180" height="40" viewBox="0 0 180 40" fill="none" xmlns="http://www.w3.org/2000/svg">
<path d="M15.2036 9.07738V3.61093H20.6175C26.43 3.61093 30.2024 7.3589 31.8437 12.1449C32.4593 13.944 32.7781 15.8816 32.7781 17.8187C32.7781 19.7678 32.4705 21.7049 31.8437 23.4925C30.191 28.2552 26.3734 31.9572 20.2983 31.9572H16.5599L11.1008 36.0741C10.6335 36.4315 10.0295 36.4892 9.50538 36.2242C8.9696 35.9471 8.66178 35.4398 8.66178 34.8398V31.9572C4.61608 31.4148 1.98282 28.6241 0.763293 25.1417C0.250589 23.6885 0 22.1201 0 20.5632C0 19.0066 0.250589 17.438 0.763293 15.9848C2.11946 12.1103 5.24267 9.07738 10.1203 9.07738H11.5109H15.2036ZM18.2692 12.1796V17.6342H11.1348C10.0863 17.6342 9.41411 18.3259 9.11769 19.2142C8.98078 19.6062 8.91232 20.0557 8.91232 20.517C8.91232 20.9783 8.98078 21.4281 9.11769 21.8204C9.41411 22.7084 10.0863 23.4003 11.1348 23.4003H17.9391C20.5833 23.4003 22.2702 21.9705 22.9879 20.1365C23.2843 19.4104 23.4324 18.603 23.4324 17.7843C23.4324 16.9653 23.2843 16.1695 22.9879 15.4318C22.2931 13.6785 20.7202 12.2948 18.2692 12.1796ZM18.2692 6.71311V9.07738C22.179 9.20413 24.6974 11.4414 25.8258 14.2781C26.2705 15.3967 26.4871 16.5961 26.4871 17.7843C26.4871 18.9717 26.2705 20.1712 25.8258 21.2898C24.6637 24.2075 22.0306 26.491 17.9391 26.491H11.1348C8.57074 26.491 6.94082 24.8877 6.23413 22.8351C5.97218 22.0857 5.84667 21.2898 5.84667 20.517C5.84667 19.7447 5.97218 18.9486 6.23413 18.1994C6.94082 16.1466 8.57074 14.5433 11.1348 14.5433H15.2036V12.1796H11.5109H10.1203C6.75826 12.1796 4.5928 14.3014 3.64674 17.0113C3.2594 18.1302 3.06584 19.3411 3.06584 20.5632C3.06584 21.7858 3.2594 23.0081 3.64674 24.1149C4.5928 26.8368 6.75826 28.9587 10.1203 28.9587H10.1892H11.7163V30.504V31.7494L15.1354 29.1662L15.5456 28.8548H16.047H20.2983C24.846 28.8548 27.7179 26.0641 28.9599 22.4662C29.4731 21.0014 29.7239 19.4104 29.7239 17.8187C29.7239 16.2272 29.4731 14.6357 28.9599 13.1597C27.7179 9.53845 24.9142 6.71311 20.6175 6.71311H18.2692Z" fill="#5D58B1"/>
<path d="M51.8527 21.5377C52.014 21.5377 52.0831 21.607 52.0831 21.7689C52.0831 22.7625 51.0684 26.8984 45.9249 26.8984C42.1425 26.8984 39.4898 24.3109 39.4898 20.1051C39.4898 16.0152 42.2116 13.3576 45.9482 13.3576C51.0684 13.3576 52.0831 17.4941 52.0831 18.4877C52.0831 18.6726 52.014 18.7186 51.8527 18.7186H48.6465C48.4852 18.7186 48.4393 18.6726 48.3928 18.4877C48.1624 17.3783 47.3319 16.5235 45.9249 16.5235C44.2413 16.5235 43.1572 17.8636 43.1572 20.1282C43.1572 22.4158 44.2181 23.7098 45.9017 23.7098C47.3319 23.7098 48.1624 22.878 48.3928 21.7689C48.4393 21.607 48.4852 21.5377 48.6465 21.5377H51.8527Z" fill="#101828"/>
<path d="M63.4996 20.1292C63.4996 17.8879 62.2545 16.5013 60.3861 16.5013C58.633 16.5013 57.3417 17.8646 57.3417 20.1292C57.3417 22.4631 58.5871 23.7338 60.3861 23.7338C62.2083 23.7338 63.4996 22.4631 63.4996 20.1292ZM67.1902 20.1062C67.1902 24.335 64.3071 26.9227 60.3861 26.9227C56.5112 26.9227 53.6973 24.2887 53.6973 20.1062C53.6973 16.0163 56.5574 13.3357 60.3861 13.3357C64.3301 13.3357 67.1902 15.947 67.1902 20.1062Z" fill="#101828"/>
<path d="M69.149 15.3218C69.149 14.1663 69.8409 13.5194 71.0175 13.5194H81.3504C84.8792 13.5194 87.232 15.6452 87.232 19.2501V26.5059C87.232 26.6905 87.1858 26.7368 87.0242 26.7368H83.7721C83.6105 26.7368 83.5643 26.6905 83.5643 26.5059V19.1578C83.5643 17.5401 82.7112 16.7776 81.3274 16.7776H80.0588V26.5059C80.0588 26.6905 80.0126 26.7368 79.8281 26.7368H76.553C76.3914 26.7368 76.3455 26.6905 76.3455 26.5059V16.7776H72.8394V26.5059C72.8394 26.6905 72.7932 26.7368 72.6319 26.7368H69.3565C69.1952 26.7368 69.149 26.6905 69.149 26.5059V15.3218Z" fill="#101828"/>
<path d="M93.1353 20.3827C93.1353 22.601 94.1729 23.7099 95.8801 23.7099C97.6096 23.7099 98.5554 22.3466 98.5554 20.2208C98.5554 18.0485 97.4483 16.7315 95.534 16.7315H93.1353V20.3827ZM89.537 15.3219C89.537 14.1898 90.2521 13.5196 91.4052 13.5196H95.6723C99.5239 13.5196 102.2 16.0384 102.2 20.1283C102.2 24.1259 99.8241 26.8985 96.5487 26.8985C94.1038 26.8985 93.2044 25.5355 93.2044 25.5355V31.1273C93.2044 31.3121 93.1353 31.3584 92.9737 31.3584H89.7445C89.5832 31.3584 89.537 31.3121 89.537 31.1273V15.3219Z" fill="#101828"/>
<path d="M112.404 24.215V23.0828C112.404 21.9506 111.297 21.0493 109.544 21.0493C108.091 21.0493 107.399 21.7425 107.399 22.7594C107.399 23.6144 107.929 24.215 109.175 24.215H112.404ZM108.645 26.7337C105.831 26.7337 103.847 25.5553 103.847 22.8287C103.847 20.3099 105.739 18.6925 108.806 18.6925C111.62 18.6925 112.381 19.7783 112.381 19.7783V18.0686C112.381 16.7746 111.689 15.9429 109.959 15.9429C108.529 15.9429 107.837 16.5897 107.63 17.6293C107.607 17.7912 107.514 17.8605 107.353 17.8605H104.309C104.147 17.8605 104.101 17.7912 104.101 17.6293C104.101 16.7976 104.931 13.2852 110.167 13.2852C113.811 13.2852 115.933 14.926 115.933 17.8837V24.9314C115.933 26.0636 115.218 26.7337 114.065 26.7337H108.645Z" fill="#101828"/>
<path d="M118.235 19.224C118.235 15.6191 120.68 13.5164 124.07 13.5164H125.547C125.708 13.5164 125.754 13.5627 125.754 13.7475V16.5897C125.754 16.7746 125.708 16.8206 125.547 16.8206H124.324C122.871 16.8206 121.926 17.6989 121.926 19.2933V26.5028C121.926 26.6874 121.879 26.7337 121.718 26.7337H118.443C118.281 26.7337 118.235 26.6874 118.235 26.5028V19.224Z" fill="#101828"/>
<path d="M135.802 18.7889C135.732 17.3563 134.81 16.1316 133.08 16.1316C131.581 16.1316 130.52 17.1947 130.289 18.7889H135.802ZM138.938 22.209C139.123 22.209 139.169 22.2552 139.169 22.4401C139.169 23.2025 137.854 26.9227 133.126 26.9227C129.251 26.9227 126.576 24.2887 126.576 20.1062C126.576 16.0163 129.297 13.3357 133.08 13.3357C137.324 13.3357 139.4 16.2242 139.4 19.6442C139.4 20.7764 138.777 21.2384 137.739 21.2384H130.289C130.52 22.7172 131.558 23.8497 133.172 23.8497C134.348 23.8497 135.225 23.3414 135.525 22.4401C135.594 22.2552 135.64 22.209 135.802 22.209H138.938Z" fill="#101828"/>
<path d="M141.348 8.52519C141.348 8.34033 141.395 8.29405 141.556 8.29405H144.854C145.016 8.29405 145.085 8.34033 145.085 8.52519V26.5028C145.085 26.6874 145.016 26.7337 144.854 26.7337H141.556C141.395 26.7337 141.348 26.6874 141.348 26.5028V8.52519Z" fill="#101828"/>
<path d="M147.402 13.7506C147.402 13.5887 147.448 13.5194 147.61 13.5194H150.931C151.093 13.5194 151.162 13.5887 151.162 13.7506V26.5059C151.162 26.6905 151.093 26.7368 150.931 26.7368H147.61C147.448 26.7368 147.402 26.6905 147.402 26.5059V13.7506ZM151.392 10.3538C151.392 11.5553 150.47 12.2487 149.271 12.2487C148.117 12.2487 147.172 11.5553 147.172 10.3538C147.172 9.17511 148.117 8.43567 149.271 8.43567C150.47 8.43567 151.392 9.17511 151.392 10.3538Z" fill="#101828"/>
<path d="M153.467 15.3218C153.467 14.1663 154.159 13.5194 155.336 13.5194H159.418C162.808 13.5194 165.323 15.6452 165.323 19.2501V26.5059C165.323 26.6905 165.276 26.7368 165.092 26.7368H161.863C161.702 26.7368 161.655 26.6905 161.655 26.5059V19.1578C161.655 17.5401 160.756 16.7776 159.418 16.7776H157.158V26.5059C157.158 26.6905 157.112 26.7368 156.95 26.7368H153.675C153.513 26.7368 153.467 26.6905 153.467 26.5059V15.3218Z" fill="#101828"/>
<path d="M176.346 16.7553H173.948C172.125 16.7553 170.926 17.8878 170.926 19.9675C170.926 22.0007 171.918 23.1561 173.648 23.1561C175.378 23.1561 176.346 22.1625 176.346 19.9675V16.7553ZM170.972 26.7377C171.157 26.7377 171.203 26.784 171.249 26.9686C171.48 28.0087 172.264 28.7249 173.671 28.7249C175.309 28.7249 176.323 27.8469 176.323 25.7674V24.7968C176.323 24.7968 175.585 26.1832 172.887 26.1832C169.657 26.1832 167.282 23.757 167.282 19.9905C167.282 16.0622 169.958 13.5204 173.855 13.5204H177.869C179.183 13.5204 179.967 14.2829 179.967 15.5769V25.3514C179.967 29.5799 177.292 31.7059 173.648 31.7059C168.804 31.7059 167.628 27.9857 167.628 26.9686C167.628 26.784 167.697 26.7377 167.859 26.7377H170.972Z" fill="#101828"/>
</svg>
