<svg width="21" height="21" viewBox="0 0 21 21" fill="none" xmlns="http://www.w3.org/2000/svg">
<g clip-path="url(#clip0_5_5686)">
<path d="M20.3333 10.2821C20.3333 15.8049 15.8561 20.2821 10.3333 20.2821C4.8105 20.2821 0.333313 15.8049 0.333313 10.2821C0.333313 10.2844 10.3333 0.283237 10.3333 0.282104C15.8561 0.282104 20.3333 4.75929 20.3333 10.2821Z" fill="#0052B4"/>
<path d="M10.3065 10.2824H10.3333C10.3333 10.2733 10.3333 10.2647 10.3333 10.2556C10.3243 10.2646 10.3154 10.2735 10.3065 10.2824Z" fill="#F0F0F0"/>
<path d="M10.3331 5.50028C10.3331 3.74071 10.3331 2.5877 10.3331 0.282898H10.3314C4.80932 0.283796 0.333069 4.76055 0.333069 10.2829H5.55045V7.34489L8.48842 10.2829H10.3063C10.3153 10.274 10.3242 10.265 10.3331 10.2561C10.3331 9.58239 10.3331 8.98126 10.3331 8.43829L7.3951 5.50028H10.3331Z" fill="#F0F0F0"/>
<path d="M5.3926 1.58685C3.82858 2.47744 2.52834 3.77767 1.63776 5.3417V10.2825H4.24647V4.1956V4.19556H10.3334C10.3334 3.37279 10.3334 2.58896 10.3334 1.58685H5.3926Z" fill="#D80027"/>
<path d="M10.3337 9.05283L6.78081 5.50002H5.55109C5.55109 5.49998 5.55109 5.50002 5.55109 5.50002L10.3336 10.2826H10.3337C10.3337 10.2826 10.3337 9.43471 10.3337 9.05283Z" fill="#D80027"/>
<path d="M6.3646 12.0208L6.91343 13.1684L8.15276 12.8819L7.59776 14.0266L8.59441 14.8169L7.35351 15.0966L7.35698 16.3686L6.3646 15.5728L5.37226 16.3686L5.37573 15.0966L4.1348 14.8169L5.13148 14.0266L4.5764 12.8819L5.81581 13.1684L6.3646 12.0208Z" fill="#F0F0F0"/>
<path d="M15.3059 14.1949L15.5803 14.7687L16.2 14.6255L15.9225 15.1978L16.4208 15.593L15.8003 15.7328L15.8021 16.3689L15.3059 15.9709L14.8097 16.3689L14.8114 15.7328L14.191 15.593L14.6893 15.1978L14.4118 14.6255L15.0315 14.7687L15.3059 14.1949Z" fill="#F0F0F0"/>
<path d="M12.7528 8.10828L13.0272 8.6821L13.6469 8.53882L13.3694 9.11113L13.8677 9.50632L13.2473 9.64617L13.249 10.2822L12.7528 9.88425L12.2567 10.2822L12.2583 9.64617L11.6379 9.50632L12.1362 9.11113L11.8587 8.53882L12.4784 8.6821L12.7528 8.10828Z" fill="#F0F0F0"/>
<path d="M15.3059 4.63013L15.5803 5.20396L16.2 5.06071L15.9225 5.63302L16.4208 6.02817L15.8003 6.16806L15.8021 6.80407L15.3059 6.40614L14.8097 6.80407L14.8114 6.16806L14.191 6.02817L14.6893 5.63302L14.4118 5.06071L15.0315 5.20396L15.3059 4.63013Z" fill="#F0F0F0"/>
<path d="M17.5351 7.23859L17.8095 7.81241L18.4292 7.66913L18.1517 8.24144L18.65 8.63663L18.0296 8.77652L18.0313 9.41249L17.5351 9.0146L17.039 9.41249L17.0407 8.77652L16.4202 8.63663L16.9185 8.24144L16.641 7.66913L17.2607 7.81241L17.5351 7.23859Z" fill="#F0F0F0"/>
<path d="M15.941 10.2824L16.1568 10.9467H16.8553L16.2902 11.3573L16.5061 12.0216L15.941 11.611L15.3759 12.0216L15.5917 11.3573L15.0266 10.9467H15.7251L15.941 10.2824Z" fill="#F0F0F0"/>
</g>
<defs>
<clipPath id="clip0_5_5686">
<rect width="20" height="20" fill="white" transform="translate(0.333313 0.282104)"/>
</clipPath>
</defs>
</svg>
