<svg width="24" height="25" viewBox="0 0 24 25" fill="none" xmlns="http://www.w3.org/2000/svg">
<g clip-path="url(#clip0_5_5632)">
<path d="M24 12.8134C24 19.4407 18.6274 24.8134 12 24.8134C5.37262 24.8134 0 19.4407 0 12.8134C0 12.8162 12 0.814714 12 0.813354C18.6274 0.813354 24 6.18598 24 12.8134Z" fill="#0052B4"/>
<path d="M11.9678 12.8138H11.9999C11.9999 12.8029 11.9999 12.7925 11.9999 12.7816C11.9892 12.7924 11.9785 12.8031 11.9678 12.8138Z" fill="#F0F0F0"/>
<path d="M11.9997 7.07501C11.9997 4.96352 11.9997 3.57991 11.9997 0.814148H11.9977C5.37125 0.815226 -0.000244141 6.18733 -0.000244141 12.8141H6.26061V9.28854L9.78617 12.8141H11.9677C11.9784 12.8034 11.9891 12.7927 11.9998 12.782C11.9998 11.9735 11.9998 11.2522 11.9998 10.6006L8.47419 7.07501H11.9997Z" fill="#F0F0F0"/>
<path d="M6.07112 2.37909C4.19429 3.44779 2.63401 5.00807 1.56531 6.8849V12.8139H4.69576V5.50959V5.50954H12.0001C12.0001 4.52221 12.0001 3.58162 12.0001 2.37909H6.07112Z" fill="#D80027"/>
<path d="M12.0004 11.3383L7.73696 7.07491H6.26129C6.26129 7.07486 6.26129 7.07491 6.26129 7.07491L12.0003 12.814H12.0004C12.0004 12.814 12.0004 11.7965 12.0004 11.3383Z" fill="#D80027"/>
<path d="M7.23756 14.8998L7.89616 16.2769L9.38336 15.9331L8.71736 17.3067L9.91333 18.2551L8.42425 18.5907L8.42842 20.1172L7.23756 19.1622L6.04675 20.1172L6.05092 18.5907L4.5618 18.2551L5.75781 17.3067L5.09172 15.9331L6.57902 16.2769L7.23756 14.8998Z" fill="#F0F0F0"/>
<path d="M17.9671 17.5087L18.2964 18.1972L19.04 18.0253L18.707 18.7121L19.305 19.1863L18.5604 19.3541L18.5625 20.1174L17.9671 19.6398L17.3717 20.1174L17.3738 19.3541L16.6292 19.1863L17.2272 18.7121L16.8942 18.0253L17.6378 18.1972L17.9671 17.5087Z" fill="#F0F0F0"/>
<path d="M14.9034 10.2047L15.2327 10.8933L15.9763 10.7214L15.6433 11.4081L16.2413 11.8824L15.4968 12.0502L15.4988 12.8134L14.9034 12.3359L14.308 12.8134L14.31 12.0502L13.5655 11.8824L14.1635 11.4081L13.8305 10.7214L14.5741 10.8933L14.9034 10.2047Z" fill="#F0F0F0"/>
<path d="M17.9671 6.03094L18.2964 6.71954L19.04 6.54765L18.707 7.23441L19.305 7.7086L18.5604 7.87646L18.5625 8.63968L17.9671 8.16217L17.3717 8.63968L17.3738 7.87646L16.6292 7.7086L17.2272 7.23441L16.8942 6.54765L17.6378 6.71954L17.9671 6.03094Z" fill="#F0F0F0"/>
<path d="M20.6422 9.16107L20.9714 9.84966L21.7151 9.67773L21.3821 10.3645L21.9801 10.8387L21.2355 11.0066L21.2376 11.7698L20.6422 11.2923L20.0468 11.7698L20.0488 11.0066L19.3043 10.8387L19.9023 10.3645L19.5693 9.67773L20.3129 9.84966L20.6422 9.16107Z" fill="#F0F0F0"/>
<path d="M18.7292 12.8137L18.9882 13.6108H19.8264L19.1483 14.1035L19.4074 14.9006L18.7292 14.408L18.0511 14.9006L18.3101 14.1035L17.632 13.6108H18.4702L18.7292 12.8137Z" fill="#F0F0F0"/>
</g>
<defs>
<clipPath id="clip0_5_5632">
<rect width="24" height="24" fill="white" transform="translate(0 0.813354)"/>
</clipPath>
</defs>
</svg>
