<svg width="21" height="21" viewBox="0 0 21 21" fill="none" xmlns="http://www.w3.org/2000/svg">
<path d="M7.88822 17.7227C8.47583 18.2413 9.2477 18.556 10.0931 18.556C10.9384 18.556 11.7103 18.2413 12.2979 17.7227M15.0931 6.88933C15.0931 5.56325 14.5663 4.29148 13.6286 3.35379C12.6909 2.41611 11.4192 1.88933 10.0931 1.88933C8.76699 1.88933 7.49522 2.41611 6.55754 3.35379C5.61986 4.29148 5.09307 5.56325 5.09307 6.88933C5.09307 9.46448 4.44347 11.2276 3.71779 12.3938C3.10568 13.3776 2.79962 13.8694 2.81084 14.0066C2.82327 14.1586 2.85546 14.2165 2.97789 14.3073C3.08846 14.3893 3.5869 14.3893 4.58379 14.3893H15.6024C16.5992 14.3893 17.0977 14.3893 17.2083 14.3073C17.3307 14.2165 17.3629 14.1586 17.3753 14.0066C17.3865 13.8694 17.0805 13.3776 16.4684 12.3938C15.7427 11.2276 15.0931 9.46448 15.0931 6.88933Z" stroke="#6941C6" stroke-width="1.66667" stroke-linecap="round" stroke-linejoin="round"/>
</svg>
