<svg width="25" height="25" viewBox="0 0 25 25" fill="none" xmlns="http://www.w3.org/2000/svg">
<path d="M9.00525 15.0768C9.00525 16.3655 10.0499 17.4102 11.3386 17.4102H13.5052C14.886 17.4102 16.0052 16.2909 16.0052 14.9102C16.0052 13.5294 14.886 12.4102 13.5052 12.4102H11.5052C10.1245 12.4102 9.00525 11.2909 9.00525 9.91016C9.00525 8.52944 10.1245 7.41016 11.5052 7.41016H13.6719C14.9606 7.41016 16.0052 8.45483 16.0052 9.74349M12.5052 5.91016V7.41016M12.5052 17.4102V18.9102M22.5052 12.4102C22.5052 17.933 18.0281 22.4102 12.5052 22.4102C6.9824 22.4102 2.50525 17.933 2.50525 12.4102C2.50525 6.88731 6.9824 2.41016 12.5052 2.41016C18.0281 2.41016 22.5052 6.88731 22.5052 12.4102Z" stroke="#667085" stroke-width="2" stroke-linecap="round" stroke-linejoin="round"/>
</svg>
