<svg width="20" height="21" viewBox="0 0 20 21" fill="none" xmlns="http://www.w3.org/2000/svg">
<path d="M10 11.5483C10.4602 11.5483 10.8333 11.1752 10.8333 10.715C10.8333 10.2547 10.4602 9.88163 10 9.88163C9.53976 9.88163 9.16666 10.2547 9.16666 10.715C9.16666 11.1752 9.53976 11.5483 10 11.5483Z" stroke="#98A2B3" stroke-width="1.66667" stroke-linecap="round" stroke-linejoin="round"/>
<path d="M10 5.71496C10.4602 5.71496 10.8333 5.34186 10.8333 4.88163C10.8333 4.42139 10.4602 4.04829 10 4.04829C9.53976 4.04829 9.16666 4.42139 9.16666 4.88163C9.16666 5.34186 9.53976 5.71496 10 5.71496Z" stroke="#98A2B3" stroke-width="1.66667" stroke-linecap="round" stroke-linejoin="round"/>
<path d="M10 17.3816C10.4602 17.3816 10.8333 17.0085 10.8333 16.5483C10.8333 16.0881 10.4602 15.715 10 15.715C9.53976 15.715 9.16666 16.0881 9.16666 16.5483C9.16666 17.0085 9.53976 17.3816 10 17.3816Z" stroke="#98A2B3" stroke-width="1.66667" stroke-linecap="round" stroke-linejoin="round"/>
</svg>
