<svg width="25" height="25" viewBox="0 0 25 25" fill="none" xmlns="http://www.w3.org/2000/svg">
<path d="M20.5052 12.9102V7.21016C20.5052 5.53 20.5052 4.68992 20.1783 4.04818C19.8906 3.4837 19.4317 3.02476 18.8672 2.73714C18.2255 2.41016 17.3854 2.41016 15.7052 2.41016H9.30525C7.62509 2.41016 6.78501 2.41016 6.14328 2.73714C5.57879 3.02476 5.11985 3.4837 4.83223 4.04818C4.50525 4.68992 4.50525 5.53 4.50525 7.21016V17.6102C4.50525 19.2903 4.50525 20.1304 4.83223 20.7721C5.11985 21.3366 5.57879 21.7956 6.14328 22.0832C6.78501 22.4102 7.62509 22.4102 9.30525 22.4102H12.5052M14.5052 11.4102H8.50525M10.5052 15.4102H8.50525M16.5052 7.41016H8.50525M15.0052 19.4102L17.0052 21.4102L21.5052 16.9102" stroke="#667085" stroke-width="2.36421" stroke-linecap="round" stroke-linejoin="round"/>
</svg>
