<svg width="25" height="25" viewBox="0 0 25 25" fill="none" xmlns="http://www.w3.org/2000/svg">
<path d="M8.50525 17.4101H16.5052M11.5229 3.17415L4.74064 8.44928C4.28727 8.8019 4.06059 8.97821 3.89728 9.19901C3.75261 9.3946 3.64485 9.61494 3.57928 9.84921C3.50525 10.1137 3.50525 10.4009 3.50525 10.9752V18.2101C3.50525 19.3302 3.50525 19.8903 3.72324 20.3181C3.91498 20.6944 4.22094 21.0004 4.59727 21.1922C5.02509 21.4101 5.58514 21.4101 6.70525 21.4101H18.3052C19.4254 21.4101 19.9854 21.4101 20.4132 21.1922C20.7896 21.0004 21.0955 20.6944 21.2873 20.3181C21.5052 19.8903 21.5052 19.3302 21.5052 18.2101V10.9752C21.5052 10.4009 21.5052 10.1137 21.4312 9.84921C21.3656 9.61494 21.2579 9.3946 21.1132 9.19901C20.9499 8.97821 20.7232 8.8019 20.2699 8.44928L13.4876 3.17416C13.1362 2.9009 12.9606 2.76428 12.7666 2.71176C12.5954 2.66542 12.4151 2.66542 12.2439 2.71176C12.0499 2.76428 11.8743 2.9009 11.5229 3.17415Z" stroke="#667085" stroke-width="2" stroke-linecap="round" stroke-linejoin="round"/>
</svg>
