<svg width="24" height="25" viewBox="0 0 24 25" fill="none" xmlns="http://www.w3.org/2000/svg">
<g clip-path="url(#clip0_5_5713)">
<path d="M12 24.8134C18.6274 24.8134 24 19.4408 24 12.8134C24 6.18594 18.6274 0.813354 12 0.813354C5.37258 0.813354 0 6.18594 0 12.8134C0 19.4408 5.37258 24.8134 12 24.8134Z" fill="#F0F0F0"/>
<path d="M12 0.812378C7.24248 0.812378 3.13173 3.58105 1.19073 7.595H22.8092C20.8683 3.58105 16.7575 0.812378 12 0.812378Z" fill="#FF9811"/>
<path d="M12 24.813C16.7575 24.813 20.8683 22.0443 22.8093 18.0304H1.19073C3.13173 22.0443 7.24248 24.813 12 24.813Z" fill="#6DA544"/>
<path d="M12.0004 16.9865C14.3055 16.9865 16.1743 15.1178 16.1743 12.8126C16.1743 10.5074 14.3055 8.63873 12.0004 8.63873C9.69519 8.63873 7.82648 10.5074 7.82648 12.8126C7.82648 15.1178 9.69519 16.9865 12.0004 16.9865Z" fill="#0052B4"/>
<path d="M12.0001 15.4214C13.4409 15.4214 14.6088 14.2535 14.6088 12.8127C14.6088 11.372 13.4409 10.204 12.0001 10.204C10.5594 10.204 9.39145 11.372 9.39145 12.8127C9.39145 14.2535 10.5594 15.4214 12.0001 15.4214Z" fill="#F0F0F0"/>
<path d="M12.0004 9.59424L12.8052 11.4195L14.7882 11.2038L13.6099 12.8133L14.7882 14.4229L12.8052 14.2072L12.0004 16.0324L11.1956 14.2072L9.21255 14.4228L10.3908 12.8133L9.21255 11.2038L11.1956 11.4195L12.0004 9.59424Z" fill="#0052B4"/>
</g>
<defs>
<clipPath id="clip0_5_5713">
<rect width="24" height="24" fill="white" transform="translate(0 0.813354)"/>
</clipPath>
</defs>
</svg>
