<svg width="25" height="25" viewBox="0 0 25 25" fill="none" xmlns="http://www.w3.org/2000/svg">
<path d="M9.64151 9.54644L5.43418 5.33911M5.43418 19.4812L9.67322 15.2422M15.3663 15.2739L19.5736 19.4812M19.5736 5.33911L15.334 9.57877M22.5052 12.4102C22.5052 17.933 18.0281 22.4102 12.5052 22.4102C6.9824 22.4102 2.50525 17.933 2.50525 12.4102C2.50525 6.88731 6.9824 2.41016 12.5052 2.41016C18.0281 2.41016 22.5052 6.88731 22.5052 12.4102ZM16.5052 12.4102C16.5052 14.6193 14.7144 16.4102 12.5052 16.4102C10.2961 16.4102 8.50525 14.6193 8.50525 12.4102C8.50525 10.201 10.2961 8.41016 12.5052 8.41016C14.7144 8.41016 16.5052 10.201 16.5052 12.4102Z" stroke="#667085" stroke-width="2" stroke-linecap="round" stroke-linejoin="round"/>
</svg>
