<svg width="142" height="25" viewBox="0 0 142 25" fill="none" xmlns="http://www.w3.org/2000/svg">
<path d="M13.358 13.9479C13.5192 13.9479 13.5884 14.0172 13.5884 14.179C13.5884 15.1726 12.5737 19.3085 7.43019 19.3085C3.64773 19.3085 0.995056 16.7211 0.995056 12.5153C0.995056 8.4254 3.71689 5.7678 7.45343 5.7678C12.5737 5.7678 13.5884 9.90427 13.5884 10.8979C13.5884 11.0827 13.5192 11.1287 13.358 11.1287H10.1517C9.99046 11.1287 9.94455 11.0827 9.89806 10.8979C9.66763 9.78842 8.83716 8.93369 7.43019 8.93369C5.74658 8.93369 4.66244 10.2737 4.66244 12.5383C4.66244 14.8259 5.72333 16.1199 7.40694 16.1199C8.83716 16.1199 9.66763 15.2882 9.89806 14.179C9.94455 14.0172 9.99046 13.9479 10.1517 13.9479H13.358Z" fill="#101828"/>
<path d="M25.0048 12.5394C25.0048 10.2981 23.7597 8.91147 21.8913 8.91147C20.1382 8.91147 18.8469 10.2748 18.8469 12.5394C18.8469 14.8733 20.0923 16.144 21.8913 16.144C23.7135 16.144 25.0048 14.8733 25.0048 12.5394ZM28.6955 12.5164C28.6955 16.7451 25.8123 19.3329 21.8913 19.3329C18.0164 19.3329 15.2025 16.6988 15.2025 12.5164C15.2025 8.42646 18.0626 5.74586 21.8913 5.74586C25.8353 5.74586 28.6955 8.35717 28.6955 12.5164Z" fill="#101828"/>
<path d="M30.6543 7.73191C30.6543 6.57647 31.3462 5.9296 32.5227 5.9296H42.8557C46.3844 5.9296 48.7372 8.05535 48.7372 11.6602V18.9161C48.7372 19.1006 48.691 19.1469 48.5295 19.1469H45.2773C45.1158 19.1469 45.0696 19.1006 45.0696 18.9161V11.568C45.0696 9.95023 44.2164 9.18779 42.8327 9.18779H41.564V18.9161C41.564 19.1006 41.5178 19.1469 41.3333 19.1469H38.0582C37.8967 19.1469 37.8507 19.1006 37.8507 18.9161V9.18779H34.3446V18.9161C34.3446 19.1006 34.2984 19.1469 34.1372 19.1469H30.8618C30.7005 19.1469 30.6543 19.1006 30.6543 18.9161V7.73191Z" fill="#101828"/>
<path d="M54.6405 12.7928C54.6405 15.0112 55.6782 16.12 57.3853 16.12C59.1148 16.12 60.0607 14.7567 60.0607 12.631C60.0607 10.4587 58.9535 9.14166 57.0392 9.14166H54.6405V12.7928ZM51.0423 7.73207C51.0423 6.59991 51.7574 5.92976 52.9104 5.92976H57.1775C61.0292 5.92976 63.7048 8.44851 63.7048 12.5384C63.7048 16.536 61.3293 19.3086 58.0539 19.3086C55.609 19.3086 54.7097 17.9456 54.7097 17.9456V23.5374C54.7097 23.7223 54.6405 23.7686 54.479 23.7686H51.2498C51.0885 23.7686 51.0423 23.7223 51.0423 23.5374V7.73207Z" fill="#101828"/>
<path d="M73.9093 16.6251V15.493C73.9093 14.3608 72.8022 13.4595 71.0495 13.4595C69.5966 13.4595 68.9044 14.1527 68.9044 15.1695C68.9044 16.0245 69.4347 16.6251 70.6804 16.6251H73.9093ZM70.1499 19.1439C67.3359 19.1439 65.3524 17.9654 65.3524 15.2388C65.3524 12.7201 67.2438 11.1026 70.3114 11.1026C73.1254 11.1026 73.8864 12.1885 73.8864 12.1885V10.4788C73.8864 9.18474 73.1945 8.35301 71.4644 8.35301C70.0345 8.35301 69.3426 8.99988 69.1352 10.0395C69.1122 10.2013 69.0195 10.2706 68.8582 10.2706H65.8138C65.6523 10.2706 65.6061 10.2013 65.6061 10.0395C65.6061 9.20774 66.4366 5.69541 71.6722 5.69541C75.3163 5.69541 77.4384 7.33614 77.4384 10.2939V17.3416C77.4384 18.4737 76.7233 19.1439 75.5703 19.1439H70.1499Z" fill="#101828"/>
<path d="M79.7403 11.6342C79.7403 8.02929 82.1852 5.92655 85.5757 5.92655H87.0518C87.2136 5.92655 87.2596 5.97284 87.2596 6.15769V8.99988C87.2596 9.18474 87.2136 9.23073 87.0518 9.23073H85.8296C84.3765 9.23073 83.4309 10.109 83.4309 11.7035V18.913C83.4309 19.0976 83.3847 19.1439 83.2232 19.1439H79.948C79.7865 19.1439 79.7403 19.0976 79.7403 18.913V11.6342Z" fill="#101828"/>
<path d="M97.3069 11.1991C97.2377 9.76648 96.3151 8.54175 94.5853 8.54175C93.0862 8.54175 92.025 9.60491 91.7943 11.1991H97.3069ZM100.444 14.6191C100.628 14.6191 100.674 14.6654 100.674 14.8503C100.674 15.6127 99.3595 19.3329 94.6315 19.3329C90.7567 19.3329 88.0807 16.6988 88.0807 12.5164C88.0807 8.42646 90.8026 5.74586 94.5853 5.74586C98.8289 5.74586 100.905 8.63432 100.905 12.0544C100.905 13.1865 100.282 13.6485 99.2442 13.6485H91.7943C92.025 15.1274 93.063 16.2598 94.6774 16.2598C95.8537 16.2598 96.7304 15.7515 97.0302 14.8503C97.0994 14.6654 97.1453 14.6191 97.3069 14.6191H100.444Z" fill="#101828"/>
<path d="M102.854 0.935345C102.854 0.750484 102.9 0.704203 103.061 0.704203H106.36C106.521 0.704203 106.59 0.750484 106.59 0.935345V18.913C106.59 19.0976 106.521 19.1439 106.36 19.1439H103.061C102.9 19.1439 102.854 19.0976 102.854 18.913V0.935345Z" fill="#101828"/>
<path d="M108.908 6.16075C108.908 5.99889 108.954 5.9296 109.115 5.9296H112.437C112.598 5.9296 112.667 5.99889 112.667 6.16075V18.9161C112.667 19.1006 112.598 19.1469 112.437 19.1469H109.115C108.954 19.1469 108.908 19.1006 108.908 18.9161V6.16075ZM112.898 2.76399C112.898 3.96544 111.975 4.65887 110.776 4.65887C109.623 4.65887 108.677 3.96544 108.677 2.76399C108.677 1.58527 109.623 0.845827 110.776 0.845827C111.975 0.845827 112.898 1.58527 112.898 2.76399Z" fill="#101828"/>
<path d="M114.972 7.73191C114.972 6.57647 115.665 5.9296 116.841 5.9296H120.923C124.314 5.9296 126.828 8.05535 126.828 11.6602V18.9161C126.828 19.1006 126.782 19.1469 126.597 19.1469H123.368C123.207 19.1469 123.161 19.1006 123.161 18.9161V11.568C123.161 9.95023 122.261 9.18779 120.923 9.18779H118.663V18.9161C118.663 19.1006 118.617 19.1469 118.455 19.1469H115.18C115.019 19.1469 114.972 19.1006 114.972 18.9161V7.73191Z" fill="#101828"/>
<path d="M137.852 9.16547H135.453C133.631 9.16547 132.431 10.2979 132.431 12.3777C132.431 14.4108 133.423 15.5663 135.153 15.5663C136.883 15.5663 137.852 14.5727 137.852 12.3777V9.16547ZM132.478 19.1479C132.662 19.1479 132.708 19.1942 132.754 19.3788C132.985 20.4189 133.769 21.1351 135.176 21.1351C136.814 21.1351 137.829 20.257 137.829 18.1776V17.207C137.829 17.207 137.09 18.5933 134.392 18.5933C131.163 18.5933 128.787 16.1671 128.787 12.4007C128.787 8.47232 131.463 5.93058 135.361 5.93058H139.374C140.689 5.93058 141.473 6.69301 141.473 7.98703V17.7616C141.473 21.9901 138.797 24.1161 135.153 24.1161C130.31 24.1161 129.133 20.3959 129.133 19.3788C129.133 19.1942 129.202 19.1479 129.364 19.1479H132.478Z" fill="#101828"/>
</svg>
