<svg width="20" height="21" viewBox="0 0 20 21" fill="none" xmlns="http://www.w3.org/2000/svg">
<path d="M2.5 6.72266C2.5 5.32253 2.5 4.62246 2.77248 4.08768C3.01217 3.61727 3.39462 3.23482 3.86502 2.99514C4.3998 2.72266 5.09987 2.72266 6.5 2.72266H13.5C14.9001 2.72266 15.6002 2.72266 16.135 2.99514C16.6054 3.23482 16.9878 3.61727 17.2275 4.08768C17.5 4.62246 17.5 5.32253 17.5 6.72266V11.2227C17.5 12.6228 17.5 13.3229 17.2275 13.8576C16.9878 14.328 16.6054 14.7105 16.135 14.9502C15.6002 15.2227 14.9001 15.2227 13.5 15.2227H8.06979C7.54975 15.2227 7.28972 15.2227 7.04101 15.2737C6.82036 15.319 6.60683 15.3939 6.40624 15.4964C6.18014 15.6119 5.9771 15.7743 5.57101 16.0992L3.58313 17.6895C3.23639 17.9669 3.06302 18.1056 2.91712 18.1057C2.79022 18.1059 2.67019 18.0482 2.59102 17.949C2.5 17.835 2.5 17.6129 2.5 17.1689V6.72266Z" stroke="#7F56D9" stroke-width="1.66667" stroke-linecap="round" stroke-linejoin="round"/>
</svg>
