<svg width="25" height="25" viewBox="0 0 25 25" fill="none" xmlns="http://www.w3.org/2000/svg">
<path d="M12.5052 15.4102C14.1621 15.4102 15.5052 14.067 15.5052 12.4102C15.5052 10.7533 14.1621 9.41016 12.5052 9.41016C10.8484 9.41016 9.50525 10.7533 9.50525 12.4102C9.50525 14.067 10.8484 15.4102 12.5052 15.4102Z" stroke="#667085" stroke-width="2" stroke-linecap="round" stroke-linejoin="round"/>
<path d="M19.2325 15.1374C19.1115 15.4116 19.0754 15.7158 19.1289 16.0107C19.1824 16.3056 19.3229 16.5777 19.5325 16.792L19.5871 16.8465C19.7561 17.0154 19.8902 17.2159 19.9817 17.4366C20.0732 17.6574 20.1203 17.8939 20.1203 18.1329C20.1203 18.3718 20.0732 18.6084 19.9817 18.8291C19.8902 19.0499 19.7561 19.2504 19.5871 19.4192C19.4182 19.5883 19.2177 19.7224 18.997 19.8139C18.7762 19.9054 18.5396 19.9525 18.3007 19.9525C18.0618 19.9525 17.8252 19.9054 17.6044 19.8139C17.3837 19.7224 17.1832 19.5883 17.0143 19.4192L16.9598 19.3647C16.7455 19.1551 16.4734 19.0145 16.1785 18.9611C15.8836 18.9076 15.5794 18.9437 15.3052 19.0647C15.0364 19.1799 14.8071 19.3713 14.6455 19.6152C14.484 19.8591 14.3973 20.1449 14.3962 20.4374V20.592C14.3962 21.0742 14.2046 21.5366 13.8636 21.8776C13.5226 22.2186 13.0602 22.4102 12.578 22.4102C12.0958 22.4102 11.6333 22.2186 11.2923 21.8776C10.9514 21.5366 10.7598 21.0742 10.7598 20.592V20.5102C10.7528 20.2093 10.6554 19.9174 10.4803 19.6726C10.3052 19.4278 10.0605 19.2413 9.77798 19.1374C9.50378 19.0164 9.19962 18.9803 8.90471 19.0338C8.60981 19.0873 8.33768 19.2279 8.12343 19.4374L8.06889 19.492C7.90003 19.661 7.6995 19.7951 7.47878 19.8866C7.25805 19.9781 7.02146 20.0252 6.78252 20.0252C6.54358 20.0252 6.30699 19.9781 6.08627 19.8866C5.86554 19.7951 5.66502 19.661 5.49616 19.492C5.32711 19.3231 5.193 19.1226 5.1015 18.9019C5.01001 18.6811 4.96291 18.4445 4.96291 18.2056C4.96291 17.9667 5.01001 17.7301 5.1015 17.5094C5.193 17.2886 5.32711 17.0881 5.49616 16.9192L5.5507 16.8647C5.76028 16.6504 5.90087 16.3783 5.95434 16.0834C6.00782 15.7885 5.97172 15.4844 5.8507 15.2102C5.73546 14.9413 5.54412 14.712 5.30022 14.5504C5.05632 14.3889 4.77051 14.3022 4.47798 14.3011H4.32343C3.84122 14.3011 3.37876 14.1095 3.03778 13.7685C2.69681 13.4276 2.50525 12.9651 2.50525 12.4829C2.50525 12.0007 2.69681 11.5382 3.03778 11.1972C3.37876 10.8563 3.84122 10.6647 4.32343 10.6647H4.40525C4.70615 10.6577 4.99798 10.5603 5.24279 10.3852C5.48761 10.2101 5.67408 9.96537 5.77798 9.68288C5.89899 9.40869 5.93509 9.10453 5.88162 8.80962C5.82815 8.51472 5.68756 8.24259 5.47798 8.02834L5.42343 7.97379C5.25438 7.80493 5.12028 7.60441 5.02878 7.38368C4.93728 7.16296 4.89018 6.92637 4.89018 6.68743C4.89018 6.44849 4.93728 6.2119 5.02878 5.99117C5.12028 5.77045 5.25438 5.56993 5.42343 5.40107C5.59229 5.23202 5.79282 5.09791 6.01354 5.00641C6.23426 4.91491 6.47086 4.86782 6.70979 4.86782C6.94873 4.86782 7.18533 4.91491 7.40605 5.00641C7.62677 5.09791 7.8273 5.23202 7.99616 5.40107L8.0507 5.45561C8.26496 5.66519 8.53708 5.80578 8.83199 5.85925C9.12689 5.91272 9.43105 5.87662 9.70525 5.75561H9.77798C10.0469 5.64037 10.2762 5.44903 10.4377 5.20512C10.5992 4.96122 10.6859 4.67542 10.6871 4.38288V4.22834C10.6871 3.74613 10.8786 3.28366 11.2196 2.94269C11.5606 2.60171 12.023 2.41016 12.5052 2.41016C12.9875 2.41016 13.4499 2.60171 13.7909 2.94269C14.1319 3.28366 14.3234 3.74613 14.3234 4.22834V4.31016C14.3246 4.60269 14.4113 4.8885 14.5728 5.1324C14.7343 5.3763 14.9636 5.56764 15.2325 5.68288C15.5067 5.8039 15.8109 5.84 16.1058 5.78652C16.4007 5.73305 16.6728 5.59246 16.8871 5.38288L16.9416 5.32834C17.1105 5.15929 17.311 5.02518 17.5317 4.93368C17.7524 4.84219 17.989 4.79509 18.228 4.79509C18.4669 4.79509 18.7035 4.84219 18.9242 4.93368C19.145 5.02518 19.3455 5.15929 19.5143 5.32834C19.6834 5.4972 19.8175 5.69772 19.909 5.91845C20.0005 6.13917 20.0476 6.37576 20.0476 6.6147C20.0476 6.85364 20.0005 7.09023 19.909 7.31096C19.8175 7.53168 19.6834 7.73221 19.5143 7.90107L19.4598 7.95561C19.2502 8.16986 19.1096 8.44199 19.0562 8.73689C19.0027 9.0318 19.0388 9.33596 19.1598 9.61016V9.68288C19.275 9.95176 19.4664 10.1811 19.7103 10.3426C19.9542 10.5041 20.24 10.5908 20.5325 10.592H20.6871C21.1693 10.592 21.6317 10.7835 21.9727 11.1245C22.3137 11.4655 22.5052 11.9279 22.5052 12.4102C22.5052 12.8924 22.3137 13.3548 21.9727 13.6958C21.6317 14.0368 21.1693 14.2283 20.6871 14.2283H20.6052C20.3127 14.2295 20.0269 14.3162 19.783 14.4777C19.5391 14.6392 19.3478 14.8685 19.2325 15.1374Z" stroke="#667085" stroke-width="2" stroke-linecap="round" stroke-linejoin="round"/>
</svg>
