<svg width="24" height="25" viewBox="0 0 24 25" fill="none" xmlns="http://www.w3.org/2000/svg">
<g clip-path="url(#clip0_5_5778)">
<path d="M12 24.8134C18.6274 24.8134 24 19.4408 24 12.8134C24 6.18594 18.6274 0.813354 12 0.813354C5.37258 0.813354 0 6.18594 0 12.8134C0 19.4408 5.37258 24.8134 12 24.8134Z" fill="#F0F0F0"/>
<path d="M11.478 12.8134H23.9997C23.9997 11.7303 23.8553 10.681 23.5863 9.68292H11.478V12.8134Z" fill="#D80027"/>
<path d="M11.478 6.5519H22.2384C21.5038 5.35321 20.5646 4.2937 19.4695 3.42145H11.478V6.5519Z" fill="#D80027"/>
<path d="M11.9997 24.8134C14.8239 24.8134 17.4197 23.8373 19.4695 22.2047H4.52991C6.57975 23.8373 9.17555 24.8134 11.9997 24.8134Z" fill="#D80027"/>
<path d="M1.76107 19.0733H22.2385C22.8282 18.111 23.2856 17.0591 23.5864 15.9428H0.413177C0.713974 17.0591 1.17133 18.111 1.76107 19.0733Z" fill="#D80027"/>
<path d="M5.55863 2.68732H6.65217L5.63498 3.42631L6.02353 4.62204L5.00639 3.88306L3.98925 4.62204L4.32487 3.58906C3.42928 4.33507 2.64431 5.2091 1.99744 6.18298H2.34783L1.70034 6.65337C1.59947 6.82165 1.50272 6.9926 1.41 7.16609L1.71919 8.1177L1.14234 7.69859C0.998953 8.00239 0.867797 8.31303 0.749906 8.63014L1.09055 9.67864H2.34783L1.33064 10.4176L1.71919 11.6134L0.702047 10.8744L0.0927656 11.3171C0.0317812 11.8073 0 12.3066 0 12.8134H12C12 6.18598 12 5.40467 12 0.813354C9.62944 0.813354 7.41961 1.50101 5.55863 2.68732ZM6.02353 11.6134L5.00639 10.8744L3.98925 11.6134L4.3778 10.4176L3.36061 9.67864H4.61789L5.00639 8.4829L5.39489 9.67864H6.65217L5.63498 10.4176L6.02353 11.6134ZM5.63498 6.92196L6.02353 8.1177L5.00639 7.37871L3.98925 8.1177L4.3778 6.92196L3.36061 6.18298H4.61789L5.00639 4.98725L5.39489 6.18298H6.65217L5.63498 6.92196ZM10.3279 11.6134L9.31073 10.8744L8.29359 11.6134L8.68214 10.4176L7.66495 9.67864H8.92223L9.31073 8.4829L9.69923 9.67864H10.9565L9.93933 10.4176L10.3279 11.6134ZM9.93933 6.92196L10.3279 8.1177L9.31073 7.37871L8.29359 8.1177L8.68214 6.92196L7.66495 6.18298H8.92223L9.31073 4.98725L9.69923 6.18298H10.9565L9.93933 6.92196ZM9.93933 3.42631L10.3279 4.62204L9.31073 3.88306L8.29359 4.62204L8.68214 3.42631L7.66495 2.68732H8.92223L9.31073 1.49159L9.69923 2.68732H10.9565L9.93933 3.42631Z" fill="#0052B4"/>
</g>
<defs>
<clipPath id="clip0_5_5778">
<rect width="24" height="24" fill="white" transform="translate(0 0.813354)"/>
</clipPath>
</defs>
</svg>
